<svg xmlns="http://www.w3.org/2000/svg" viewBox="0 0 96 96" role="img" aria-labelledby="title desc">
  <title id="title">冲煮手记标记</title>
  <desc id="desc">咖啡豆与水滴组成的棕色和琥珀色标记</desc>
  <circle cx="48" cy="48" r="43" fill="#F7F0E5" stroke="#D8C7B5" stroke-width="2"/>
  <path d="M48 17c-12 12-19 23-19 34 0 12 8 22 19 22s19-10 19-22c0-11-7-22-19-34Z" fill="#D89A4E"/>
  <path d="M48 28c-10 7-16 15-16 24 0 9 7 16 16 16s16-7 16-16c0-9-6-17-16-24Z" fill="#4A2C1A"/>
  <path d="M48 37c-4 4-7 8-7 13 0 5 3 8 7 8s7-3 7-8c0-5-3-9-7-13Z" fill="#D89A4E"/>
</svg>
